<svg width="27" height="27" viewBox="0 0 27 27" fill="none" xmlns="http://www.w3.org/2000/svg">
<g id="&#240;&#159;&#166;&#134; icon &#34;logo whatsapp&#34;">
<g id="Vector">
<path d="M23.0663 3.92349C21.8182 2.67479 20.3354 1.68528 18.7033 1.01193C17.0713 0.33858 15.3221 -0.00530743 13.5566 6.19189e-05C6.14731 6.19189e-05 0.115714 6.00153 0.112701 13.3795C0.109423 15.7288 0.728695 18.037 1.90747 20.0692L0 27L7.12666 25.1396C9.09936 26.2082 11.3076 26.7676 13.5512 26.7668H13.5566C20.9653 26.7668 26.9963 20.7647 27 13.3873C27.0044 11.6279 26.659 9.88505 25.9837 8.26032C25.3083 6.6356 24.3166 5.16139 23.0663 3.92349ZM13.5566 24.5086H13.5518C11.5518 24.5091 9.58806 23.9739 7.86494 22.9585L7.45693 22.7174L3.22794 23.8215L4.35676 19.7179L4.09098 19.296C2.97264 17.5254 2.38012 15.4737 2.38238 13.3795C2.38238 7.24847 7.39727 2.2601 13.5608 2.2601C16.5176 2.25482 19.3553 3.4242 21.45 5.51102C23.5446 7.59784 24.7245 10.4312 24.7303 13.3879C24.7279 19.5196 19.7154 24.5086 13.5566 24.5086ZM19.6853 16.1801C19.3496 16.0126 17.6964 15.2038 17.3903 15.0923C17.0841 14.9808 16.8581 14.9248 16.6345 15.2599C16.4109 15.5949 15.7666 16.3447 15.5708 16.5707C15.3749 16.7967 15.179 16.8214 14.8433 16.6539C14.7882 16.6263 14.7129 16.5938 14.6198 16.5536C14.1464 16.3492 13.2138 15.9466 12.1415 14.9947C11.1429 14.1081 10.4691 13.0137 10.2732 12.6792C10.0774 12.3447 10.2521 12.1633 10.4203 11.997C10.5207 11.8974 10.6356 11.758 10.7507 11.6185C10.8091 11.5477 10.8675 11.4769 10.9241 11.4112C11.0675 11.2447 11.1294 11.1185 11.2136 10.9466C11.2282 10.917 11.2434 10.8859 11.2598 10.8531C11.3713 10.6301 11.3159 10.4348 11.2321 10.2679C11.1754 10.1548 10.8489 9.36346 10.5571 8.6564C10.4181 8.31941 10.287 8.00157 10.1967 7.78545C9.95571 7.20983 9.71189 7.21136 9.51625 7.21258C9.49026 7.21275 9.46512 7.2129 9.44094 7.2117C9.24507 7.20206 9.01907 7.19965 8.79668 7.19965C8.62667 7.20407 8.4594 7.2435 8.30531 7.31546C8.15122 7.38743 8.01362 7.49038 7.9011 7.61791C7.88137 7.63938 7.85934 7.6628 7.83538 7.68827C7.48548 8.06023 6.72528 8.86835 6.72528 10.4071C6.72528 12.0289 7.89822 13.5992 8.08965 13.8555C8.09228 13.859 8.09472 13.8622 8.09697 13.8653C8.10739 13.8792 8.12578 13.9055 8.15195 13.943C8.54365 14.5035 10.6765 17.5557 13.8351 18.9133C14.4608 19.1812 15.1001 19.4162 15.7504 19.6172C16.555 19.8715 17.2872 19.836 17.8658 19.7498C18.5112 19.654 19.8546 18.941 20.1337 18.1599C20.4127 17.3789 20.4133 16.7099 20.3295 16.5707C20.2617 16.458 20.1018 16.3812 19.8649 16.2674C19.8092 16.2407 19.7493 16.2119 19.6853 16.1801Z" fill="white"/>
<path d="M23.0663 3.92349C21.8182 2.67479 20.3354 1.68528 18.7033 1.01193C17.0713 0.33858 15.3221 -0.00530743 13.5566 6.19189e-05C6.14731 6.19189e-05 0.115714 6.00153 0.112701 13.3795C0.109423 15.7288 0.728695 18.037 1.90747 20.0692L0 27L7.12666 25.1396C9.09936 26.2082 11.3076 26.7676 13.5512 26.7668H13.5566C20.9653 26.7668 26.9963 20.7647 27 13.3873C27.0044 11.6279 26.659 9.88505 25.9837 8.26032C25.3083 6.6356 24.3166 5.16139 23.0663 3.92349ZM13.5566 24.5086H13.5518C11.5518 24.5091 9.58806 23.9739 7.86494 22.9585L7.45693 22.7174L3.22794 23.8215L4.35676 19.7179L4.09098 19.296C2.97264 17.5254 2.38012 15.4737 2.38238 13.3795C2.38238 7.24847 7.39727 2.2601 13.5608 2.2601C16.5176 2.25482 19.3553 3.4242 21.45 5.51102C23.5446 7.59784 24.7245 10.4312 24.7303 13.3879C24.7279 19.5196 19.7154 24.5086 13.5566 24.5086ZM19.6853 16.1801C19.3496 16.0126 17.6964 15.2038 17.3903 15.0923C17.0841 14.9808 16.8581 14.9248 16.6345 15.2599C16.4109 15.5949 15.7666 16.3447 15.5708 16.5707C15.3749 16.7967 15.179 16.8214 14.8433 16.6539C14.7882 16.6263 14.7129 16.5938 14.6198 16.5536C14.1464 16.3492 13.2138 15.9466 12.1415 14.9947C11.1429 14.1081 10.4691 13.0137 10.2732 12.6792C10.0774 12.3447 10.2521 12.1633 10.4203 11.997C10.5207 11.8974 10.6356 11.758 10.7507 11.6185C10.8091 11.5477 10.8675 11.4769 10.9241 11.4112C11.0675 11.2447 11.1294 11.1185 11.2136 10.9466C11.2282 10.917 11.2434 10.8859 11.2598 10.8531C11.3713 10.6301 11.3159 10.4348 11.2321 10.2679C11.1754 10.1548 10.8489 9.36346 10.5571 8.6564C10.4181 8.31941 10.287 8.00157 10.1967 7.78545C9.95571 7.20983 9.71189 7.21136 9.51625 7.21258C9.49026 7.21275 9.46512 7.2129 9.44094 7.2117C9.24507 7.20206 9.01907 7.19965 8.79668 7.19965C8.62667 7.20407 8.4594 7.2435 8.30531 7.31546C8.15122 7.38743 8.01362 7.49038 7.9011 7.61791C7.88137 7.63938 7.85934 7.6628 7.83538 7.68827C7.48548 8.06023 6.72528 8.86835 6.72528 10.4071C6.72528 12.0289 7.89822 13.5992 8.08965 13.8555C8.09228 13.859 8.09472 13.8622 8.09697 13.8653C8.10739 13.8792 8.12578 13.9055 8.15195 13.943C8.54365 14.5035 10.6765 17.5557 13.8351 18.9133C14.4608 19.1812 15.1001 19.4162 15.7504 19.6172C16.555 19.8715 17.2872 19.836 17.8658 19.7498C18.5112 19.654 19.8546 18.941 20.1337 18.1599C20.4127 17.3789 20.4133 16.7099 20.3295 16.5707C20.2617 16.458 20.1018 16.3812 19.8649 16.2674C19.8092 16.2407 19.7493 16.2119 19.6853 16.1801Z" stroke="white"/>
</g>
</g>
</svg>
