<svg width="20" height="28" viewBox="0 0 20 28" fill="none" xmlns="http://www.w3.org/2000/svg">
<g id="&#240;&#159;&#166;&#134; icon &#34;location outline&#34;">
<g id="Group">
<path id="Vector" d="M9.50727 1C4.81055 1 1 4.79404 1 9.46691C1 14.8437 6.67151 23.3644 8.75402 26.3074C8.84046 26.4317 8.95376 26.5327 9.08467 26.6024C9.21557 26.6721 9.36038 26.7085 9.50727 26.7085C9.65415 26.7085 9.79896 26.6721 9.92987 26.6024C10.0608 26.5327 10.1741 26.4317 10.2605 26.3074C12.343 23.3656 18.0145 14.848 18.0145 9.46691C18.0145 4.79404 14.204 1 9.50727 1Z" stroke="white" stroke-width="2" stroke-linecap="round" stroke-linejoin="round"/>
<path id="Vector_2" d="M9.50726 12.8661C11.0734 12.8661 12.343 11.538 12.343 9.89962C12.343 8.26126 11.0734 6.93311 9.50726 6.93311C7.94112 6.93311 6.67151 8.26126 6.67151 9.89962C6.67151 11.538 7.94112 12.8661 9.50726 12.8661Z" stroke="white" stroke-width="2" stroke-linecap="round" stroke-linejoin="round"/>
</g>
</g>
</svg>
