<svg width="28" height="28" viewBox="0 0 28 28" fill="none" xmlns="http://www.w3.org/2000/svg">
<g id="&#240;&#159;&#166;&#134; icon &#34;paper plane outline&#34;">
<g id="Group">
<path id="Vector" d="M1.32091 10.4951L26.3216 1.03299C26.4117 0.998499 26.51 0.990856 26.6044 1.01099C26.6989 1.03112 26.7855 1.07817 26.8537 1.14645C26.922 1.21473 26.9691 1.30132 26.9892 1.39576C27.0093 1.4902 27.0017 1.58845 26.9672 1.67864L17.5051 26.6793C17.4674 26.7742 17.4016 26.8554 17.3165 26.9118C17.2314 26.9682 17.131 26.9972 17.0289 26.9949C16.9268 26.9926 16.8279 26.9591 16.7454 26.8989C16.6629 26.8386 16.6008 26.7546 16.5676 26.658L12.3549 16.2771C12.3058 16.13 12.2232 15.9964 12.1135 15.8867C12.0038 15.777 11.8702 15.6944 11.7231 15.6453L1.34216 11.4364C1.24436 11.4039 1.15901 11.3419 1.09779 11.259C1.03656 11.1761 1.00245 11.0763 1.00013 10.9732C0.997801 10.8702 1.02737 10.769 1.08479 10.6834C1.14221 10.5978 1.22468 10.532 1.32091 10.4951Z" stroke="white" stroke-width="2" stroke-linecap="round" stroke-linejoin="round"/>
<path id="Vector_2" d="M26.7515 1.24854L12.1887 15.8114" stroke="white" stroke-width="2" stroke-linecap="round" stroke-linejoin="round"/>
</g>
</g>
</svg>
